<?xml version="1.0" encoding="UTF-8"?>
<svg id="Layer_2" data-name="Layer 2" xmlns="http://www.w3.org/2000/svg" xmlns:xlink="http://www.w3.org/1999/xlink" viewBox="0 0 553.16 420.52">
  <defs>
    <style>
      .cls-1 {
        fill: url(#linear-gradient-2);
      }

      .cls-2 {
        fill: url(#linear-gradient);
      }
    </style>
    <linearGradient id="linear-gradient" x1="0" y1="210.26" x2="553.16" y2="210.26" gradientUnits="userSpaceOnUse">
      <stop offset=".42" stop-color="#ff6d00"/>
      <stop offset=".66" stop-color="#f24405"/>
    </linearGradient>
    <linearGradient id="linear-gradient-2" x1="172.97" y1="376.47" x2="274.75" y2="376.47" xlink:href="#linear-gradient"/>
  </defs>
  <g id="Layer_1-2" data-name="Layer 1">
    <g>
      <polygon class="cls-2" points="485.59 420.52 308.22 420.52 299.86 406.03 240.64 303.39 238.47 299.67 230.11 285.18 223.88 274.46 217.7 285.18 209.34 299.67 207.17 303.44 147.9 406.03 139.55 420.52 0 420.52 50.86 332.42 61.39 314.16 67.58 303.49 67.58 303.44 69.8 299.67 78.15 285.18 86.51 270.69 137.37 182.58 147.9 164.33 154.13 153.6 156.31 149.83 291.51 149.83 293.68 153.6 299.86 164.33 310.39 182.54 361.3 270.69 378.02 299.67 380.14 303.39 386.37 314.16 396.9 332.42 407.43 314.21 413.61 303.53 413.57 303.49 411.39 299.67 403.04 285.18 396.85 274.5 396.85 274.46 394.68 270.69 386.32 256.25 327.1 153.65 327.06 153.6 324.88 149.83 316.53 135.39 310.34 124.67 308.17 120.85 173.02 120.85 223.88 32.7 234.41 14.49 240.6 3.82 240.6 3.77 242.77 0 377.97 0 380.14 3.82 386.32 14.49 396.85 32.7 396.85 32.75 447.72 120.85 456.12 135.39 464.48 149.83 466.6 153.55 466.65 153.6 472.83 164.33 483.36 182.58 483.36 182.63 534.23 270.69 550.94 299.67 553.16 303.49 493.94 406.03 485.59 420.52"/>
      <polygon class="cls-1" points="274.75 420.52 172.97 420.52 223.88 332.42 274.75 420.52"/>
    </g>
  </g>
</svg>